<svg xmlns="http://www.w3.org/2000/svg" viewBox="0 0 32 32" fill="none">
  <!-- Background Glow (Optional, subtle) -->
  <rect x="4" y="4" width="24" height="24" fill="#22d3ee" fill-opacity="0.1" rx="4" />
  
  <!-- Pixel Art 'J' Shape -->
  <!-- Top Bar -->
  <rect x="18" y="6" width="8" height="4" fill="#22d3ee" />
  
  <!-- Vertical Stem -->
  <rect x="22" y="10" width="4" height="12" fill="#22d3ee" />
  
  <!-- Bottom Curve -->
  <rect x="10" y="22" width="12" height="4" fill="#22d3ee" />
  <rect x="6" y="18" width="4" height="4" fill="#22d3ee" />
  
  <!-- Glitch/Accent Pixels (Violet) -->
  <rect x="24" y="8" width="4" height="4" fill="#a78bfa" fill-opacity="0.8" />
  <rect x="4" y="16" width="4" height="4" fill="#a78bfa" />
  
  <!-- Scanline Effect Overlay -->
  <path d="M0 0H32V2H0z" fill="black" fill-opacity="0.1"/>
  <path d="M0 4H32V6H0z" fill="black" fill-opacity="0.1"/>
  <path d="M0 8H32V10H0z" fill="black" fill-opacity="0.1"/>
  <path d="M0 12H32V14H0z" fill="black" fill-opacity="0.1"/>
  <path d="M0 16H32V18H0z" fill="black" fill-opacity="0.1"/>
  <path d="M0 20H32V22H0z" fill="black" fill-opacity="0.1"/>
  <path d="M0 24H32V26H0z" fill="black" fill-opacity="0.1"/>
  <path d="M0 28H32V30H0z" fill="black" fill-opacity="0.1"/>
  
  <style>
    @media (prefers-color-scheme: light) {
      rect[fill="#22d3ee"] { fill: #0891b2; } /* Darker cyan for light mode */
      rect[fill="#a78bfa"] { fill: #7c3aed; } /* Darker violet for light mode */
    }
  </style>
</svg>
